<?xml version="1.0" encoding="UTF-8"?>
<svg id="Layer_1" data-name="Layer 1" xmlns="http://www.w3.org/2000/svg" viewBox="0 0 600 600">
  <defs>
    <style>
      .cls-1 {
        fill: #e8eaf6;
      }
    </style>
  </defs>
  <path class="cls-1" d="M410.56,203.34l-107.62-57.78c-2.64,0-4.82,0-7.46,0l-106.46,57.16c-.08,6.19-.1,7.6-.18,13.79l107.16,63.52c2.87-.04,5.15-.08,8.02-.12l106.93-62.9c-.17-6.09-.21-7.59-.38-13.67Z"/>
  <path class="cls-1" d="M405.99,231.46l-90.87,55.53c-1.87,3.4-3.37,6.13-5.25,9.54l2.49,148.79c7.48,4.08,9.27,5.05,16.75,9.13l88.37-54.92c1.84-3.31,3.34-6,5.18-9.31v-149.4c-7.47-4.19-9.21-5.17-16.68-9.36Z"/>
  <path class="cls-1" d="M194.01,231.46l90.87,55.53c1.87,3.4,3.37,6.13,5.25,9.54l-2.49,148.79c-7.48,4.08-9.27,5.05-16.75,9.13l-88.37-54.92c-1.84-3.31-3.34-6-5.18-9.31v-149.4c7.47-4.19,9.21-5.17,16.68-9.36Z"/>
</svg>