<?xml version="1.0" encoding="UTF-8"?>
<svg id="Layer_1" data-name="Layer 1" xmlns="http://www.w3.org/2000/svg" viewBox="0 0 600 600">
  <defs>
    <style>
      .cls-1 {
        fill: #e8eaf6;
        fill-rule: evenodd;
      }
    </style>
  </defs>
  <path class="cls-1" d="M354.92,348.33l110.05,48.45c6.47-4.22,8.54-5.57,15.01-9.79v-174.37c-6.34-4.24-8.45-5.65-14.79-9.88l-110.49,45.75c-6.34-4.24-8.45-5.65-14.79-9.88v-31.57c-4.18-4.18-6.52-6.52-10.7-10.7h-198.49c-4.18,4.18-6.52,6.52-10.7,10.7v185.95c4.18,4.18,6.52,6.52,10.7,10.7h198.49c4.18-4.18,6.52-6.52,10.7-10.7v-34.86c6.47-4.22,8.54-5.57,15.01-9.79Z"/>
</svg>