<?xml version="1.0" encoding="UTF-8"?>
<svg id="Layer_1" data-name="Layer 1" xmlns="http://www.w3.org/2000/svg" viewBox="0 0 566.93 566.93">
  <defs>
    <style>
      .cls-1 {
        fill: #e8eaf6;
        fill-rule: evenodd;
      }
    </style>
  </defs>
  <path class="cls-1" d="M330.59,324.94l94.44,41.58c5.55-3.62,7.33-4.78,12.88-8.4v-149.64c-5.44-3.63-7.25-4.85-12.69-8.48l-94.82,39.26c-5.44-3.63-7.25-4.85-12.69-8.48v-27.1c-3.59-3.59-5.6-5.6-9.18-9.18h-170.34c-3.59,3.58-5.6,5.59-9.18,9.18v159.58c3.58,3.59,5.59,5.6,9.18,9.18h170.34c3.59-3.58,5.6-5.59,9.18-9.18v-29.91c5.55-3.62,7.33-4.78,12.88-8.4Z"/>
</svg>