<?xml version="1.0" encoding="UTF-8"?>
<svg id="Layer_1" data-name="Layer 1" xmlns="http://www.w3.org/2000/svg" viewBox="0 0 566.93 566.93">
  <defs>
    <style>
      .cls-1 {
        fill: #e8eaf6;
        fill-rule: evenodd;
      }
    </style>
  </defs>
  <path class="cls-1" d="M391.69,200.8v-57.11h-25.36v57.11h-34.44v-41.95h-25.36v41.95h-19.02v-57.11h-25.36v57.11h-34.27v-41.95h-25.36v41.95h-16.78v32.49h-41.56v25.36h41.56v46.78h-56.72v25.36h56.72v34.27h-41.56v25.36h41.56v32.81h252.18v-222.43h-46.22ZM413.75,399.07h-203.86v-174.11h203.86v174.11Z"/>
  <polygon class="cls-1" points="305.51 328.05 334.43 353.17 334.5 353.25 334.58 353.17 367.36 353.17 367.36 328.05 343.93 328.05 307.28 296.15 278.37 271.02 278.21 270.87 278.05 271.02 242.53 271.02 242.53 296.15 268.95 296.15 305.51 328.05"/>
</svg>