<?xml version="1.0" encoding="UTF-8"?>
<svg id="Layer_1" data-name="Layer 1" xmlns="http://www.w3.org/2000/svg" viewBox="0 0 600 600">
  <defs>
    <style>
      .cls-1 {
        fill: #e8eaf6;
        fill-rule: evenodd;
      }
    </style>
  </defs>
  <path class="cls-1" d="M408.23,217.34v-57.11h-25.36v57.11h-34.44v-41.95h-25.36v41.95h-19.02v-57.11h-25.36v57.11h-34.27v-41.95h-25.36v41.95h-16.78v32.49h-41.56v25.36h41.56v46.78h-56.72v25.36h56.72v34.27h-41.56v25.36h41.56v32.81h252.18v-222.43h-46.22ZM430.29,415.61h-203.86v-174.11h203.86v174.11Z"/>
  <polygon class="cls-1" points="322.05 344.58 350.96 369.71 351.04 369.79 351.12 369.71 383.9 369.71 383.9 344.58 360.46 344.58 323.82 312.69 294.91 287.56 294.74 287.4 294.58 287.56 259.07 287.56 259.07 312.69 285.48 312.69 322.05 344.58"/>
</svg>