<?xml version="1.0" encoding="UTF-8"?>
<svg id="Layer_1" data-name="Layer 1" xmlns="http://www.w3.org/2000/svg" viewBox="0 0 600 600">
  <defs>
    <style>
      .cls-1 {
        fill: #e8eaf6;
      }
    </style>
  </defs>
  <path class="cls-1" d="M422.17,216.01v233.89c-1.77,1.77-2.77,2.77-4.54,4.54h-155.38c-1.41-.82-2.53-1.47-3.94-2.28l-80.47-140.11c.46-2.24.74-3.65,1.2-5.89l17.77-13.42c2.39.26,3.8.41,6.19.68l31.92,37.38c3.96-1.46,4.04-1.49,8-2.95v-160.21c1.77-1.77,2.77-2.77,4.54-4.54h32.16c1.77,1.77,2.77,2.77,4.54,4.54v110.6h11.49v-128.14c1.77-1.77,2.77-2.77,4.54-4.54h27.7c1.77,1.77,2.77,2.77,4.54,4.54v121.29c1.77,1.77,2.77,2.77,4.54,4.54h4.5c1.77-1.77,2.77-2.77,4.54-4.54v-94.96c1.77-1.77,2.77-2.77,4.54-4.54h24.27c1.77,1.77,2.77,2.77,4.54,4.54v94.96c1.77,1.77,2.77,2.77,4.54,4.54h5.31c1.77-1.77,2.77-2.77,4.54-4.54v-67.59c1.77-1.77,2.77-2.77,4.54-4.54h19.29c1.77,1.77,2.77,2.77,4.54,4.54v12.21Z"/>
</svg>