<?xml version="1.0" encoding="UTF-8"?>
<svg id="Layer_1" data-name="Layer 1" xmlns="http://www.w3.org/2000/svg" viewBox="0 0 566.93 566.93">
  <defs>
    <style>
      .cls-1 {
        fill: #e8eaf6;
      }
    </style>
  </defs>
  <path class="cls-1" d="M278.75,142.7l-149.73,134.76c2.31,6.03,2.4,6.26,4.72,12.29h25.01c2.75,2.75,4.3,4.3,7.05,7.05v120.38c2.75,2.75,4.3,4.3,7.05,7.05h69.95c2.75-2.75,4.3-4.3,7.05-7.05v-86.76c2.75-2.75,4.3-4.3,7.05-7.05h53.14c2.75,2.75,4.3,4.3,7.05,7.05v86.76c2.75,2.75,4.3,4.3,7.05,7.05h69.95c2.75-2.75,4.3-4.3,7.05-7.05v-120.38c2.75-2.75,4.3-4.3,7.05-7.05h25.01c2.31-6.03,2.4-6.26,4.72-12.29l-149.73-134.76c-3.61,0-5.82,0-9.43,0Z"/>
</svg>