<?xml version="1.0" encoding="UTF-8"?>
<svg id="Layer_1" data-name="Layer 1" xmlns="http://www.w3.org/2000/svg" viewBox="0 0 600 600">
  <defs>
    <style>
      .cls-1 {
        fill: #e8eaf6;
        fill-rule: evenodd;
      }
    </style>
  </defs>
  <path class="cls-1" d="M367.64,246.62v-73.27c2.79-2.79,4.36-4.36,7.15-7.15h31.24c2.79-2.79,4.36-4.36,7.15-7.15v-39.21c-2.79-2.79-4.36-4.36-7.15-7.15h-212.05c-2.79,2.79-4.36,4.36-7.15,7.15v39.21c2.79,2.79,4.36,4.36,7.15,7.15h31.24c2.79,2.79,4.36,4.36,7.15,7.15v73.27c-2.79,2.79-4.36,4.36-7.15,7.15h-34.86c-2.79,2.79-4.36,4.36-7.15,7.15v49.85c2.79,2.79,4.36,4.36,7.15,7.15h89.99c2.79,2.79,4.36,4.36,7.15,7.15v155.09c2.79,2.79,4.36,4.36,7.15,7.15h12.87c2.79-2.79,4.36-4.36,7.15-7.15v-155.09c2.79-2.79,4.36-4.36,7.15-7.15h87.84c2.79-2.79,4.36-4.36,7.15-7.15v-49.85c-2.79-2.79-4.36-4.36-7.15-7.15h-34.86c-2.79-2.79-4.36-4.36-7.15-7.15Z"/>
</svg>