<?xml version="1.0" encoding="UTF-8"?>
<svg id="Layer_1" data-name="Layer 1" xmlns="http://www.w3.org/2000/svg" viewBox="0 0 566.93 566.93">
  <defs>
    <style>
      .cls-1 {
        fill: #e8eaf6;
      }
    </style>
  </defs>
  <path class="cls-1" d="M359.63,297.19h78.28v-29.13h-74.77l-13.78-30.74,31.14-31.14-20.6-20.6-31.22,31.22-22.46-14.65-9.07-.06v-72h-29.13v71.8l-7.99-.05-23.96,15.16-31.41-31.41-20.6,20.6,31.67,31.67-14.05,30.21h-72.68v29.13h76.45l2.32,16.97,10.54,12.33-34.26,34.26,20.6,20.6,32.64-32.64.48.56,30.22,9.1v78.48h29.13v-78.59l29.27-8.38.94-1.07,32.54,32.54,20.6-20.6-33.87-33.87,10.28-11.7,2.71-18ZM282.19,338.86l-31.42-9.46-21.32-24.95-4.44-32.51,13.83-29.75,27.72-17.55,32.82.22,27.48,17.93,13.43,29.94-4.89,32.45-21.66,24.65-31.55,9.03Z"/>
</svg>