<?xml version="1.0" encoding="UTF-8"?>
<svg id="Layer_1" data-name="Layer 1" xmlns="http://www.w3.org/2000/svg" viewBox="0 0 600 600">
  <defs>
    <style>
      .cls-1 {
        fill: #e8eaf6;
      }
    </style>
  </defs>
  <path class="cls-1" d="M402.1,318.4h104.93v-39.05h-100.22l-18.48-41.21,41.74-41.74-27.61-27.61-41.85,41.85-30.11-19.64-12.16-.08v-96.52h-39.05v96.24l-10.71-.07-32.11,20.33-42.1-42.1-27.61,27.61,42.45,42.45-18.83,40.5h-97.42v39.05h102.48l3.11,22.75,14.13,16.53-45.92,45.92,27.61,27.62,43.76-43.76.65.76,40.51,12.2v105.19h39.05v-105.35l39.24-11.23,1.26-1.43,43.62,43.62,27.61-27.62-45.4-45.4,13.78-15.69,3.64-24.13ZM298.72,355.4l-31.42-9.46-21.32-24.95-4.44-32.51,13.83-29.75,27.72-17.55,32.82.22,27.48,17.93,13.43,29.94-4.89,32.45-21.66,24.65-31.55,9.03Z"/>
</svg>