<?xml version="1.0" encoding="UTF-8"?>
<svg id="Layer_1" data-name="Layer 1" xmlns="http://www.w3.org/2000/svg" viewBox="0 0 566.93 566.93">
  <defs>
    <style>
      .cls-1 {
        fill: #e8eaf6;
      }
    </style>
  </defs>
  <path class="cls-1" d="M132.87,141.27c-1.51,1.51-2.35,2.35-3.86,3.86v70.31c0,.75.61,1.36,1.36,1.36h5.57c.4,0,.77-.17,1.03-.48l49.97-58.52c.26-.3.64-.48,1.03-.48h66.73c.75,0,1.36.61,1.36,1.36v250.18c-1.51,1.51-2.35,2.35-3.86,3.86h-29.87l-3.86,3.86v7.72c0,.75.61,1.36,1.36,1.36h127.24c.75,0,1.36-.61,1.36-1.36v-7.72l-3.86-3.86h-29.87l-3.86-3.86v-250.18c0-.75.61-1.36,1.36-1.36h66.73c.4,0,.77.17,1.03.48l49.97,58.52c.26.3.64.48,1.03.48h5.57c.75,0,1.36-.61,1.36-1.36v-70.31l-3.86-3.86H132.87Z"/>
</svg>