<?xml version="1.0" encoding="UTF-8"?>
<svg id="Layer_1" data-name="Layer 1" xmlns="http://www.w3.org/2000/svg" viewBox="0 0 566.93 566.93">
  <defs>
    <style>
      .cls-1 {
        fill: #e8eaf6;
      }
    </style>
  </defs>
  <path class="cls-1" d="M416.9,260.17l-36.14-50.45-55.45-27.87-17.02.3v-27.32h36.63v-25.81h-96.31v25.81h33.87v27.77l-19.22.34-54.44,29.8-34.36,51.69-6.4,61.73,23.02,57.64,47.17,40.33,60.51,13.8,59.99-15.9,45.73-41.96,20.99-58.41-8.56-61.47ZM384.51,366.77l-37.27,34.2-48.9,12.96-49.32-11.24-38.44-32.88-18.76-46.98,5.22-50.31,28-42.13,44.37-24.29,50.58-.89,45.2,22.72,29.45,41.12,6.98,50.1-17.11,47.6Z"/>
  <polygon class="cls-1" points="208.43 141.86 182.63 141.86 182.63 183.02 141.47 183.02 141.47 208.82 208.43 208.82 208.43 141.86"/>
</svg>