<?xml version="1.0" encoding="UTF-8"?>
<svg id="Layer_1" data-name="Layer 1" xmlns="http://www.w3.org/2000/svg" viewBox="0 0 566.93 566.93">
  <defs>
    <style>
      .cls-1 {
        fill: #7558f8;
      }
    </style>
  </defs>
  <path class="cls-1" d="M415.38,247.52l17.59-17.65c-.72-1.73-.77-1.86-1.49-3.58h-39.83c-.52.22-.98.41-1.5.63l-48.76,49.49c-1.39-.19-1.94-.27-3.34-.47l-26.55-48.56c-.66-.39-1.18-.7-1.84-1.09h-62.81c-.84-1.19-1.14-1.62-1.98-2.81l12.39-34.29c14.49-10.17,25.03-17.57,39.52-27.74h21.86c.82-.82,1.28-1.28,2.1-2.1v-28.22c-.82-.82-1.28-1.28-2.1-2.1h-21.87c-25.67,18.02-44.34,31.13-70.01,49.14l-16.89,46.74c-.72.51-1.25.88-1.98,1.39h-69.87c-.82.82-1.28,1.28-2.1,2.1v28.22c.82.82,1.28,1.28,2.1,2.1h56.64c.84,1.19,1.14,1.62,1.98,2.81l-62.7,173.58c.84,1.19,1.14,1.62,1.98,2.81h30c.72-.51,1.25-.88,1.98-1.39l63.73-176.43c.72-.51,1.25-.88,1.98-1.39h56.82c.66.39,1.18.7,1.84,1.09l22.62,41.37c-.13.92-.22,1.56-.35,2.48l-71.65,72.73c.72,1.72.78,1.86,1.5,3.57h39.61c.52-.22.98-.41,1.5-.63l44.41-45.07c1.39.19,1.94.27,3.34.47l24.14,44.14c.66.39,1.18.7,1.84,1.09h32.17c.81-1.37,1.03-1.74,1.84-3.11l-36.84-67.36c.13-.92.22-1.56.35-2.48l58.62-59.5h0Z"/>
</svg>