<?xml version="1.0" encoding="UTF-8"?>
<svg id="Layer_1" data-name="Layer 1" xmlns="http://www.w3.org/2000/svg" viewBox="0 0 566.93 566.93">
  <defs>
    <style>
      .cls-1 {
        fill: #7558f8;
        fill-rule: evenodd;
      }
    </style>
  </defs>
  <path class="cls-1" d="M339.24,239.45v-60.42c2.3-2.3,3.59-3.59,5.89-5.89h25.76c2.3-2.3,3.59-3.59,5.89-5.89v-32.33c-2.3-2.3-3.59-3.59-5.89-5.89h-174.85c-2.3,2.3-3.59,3.59-5.89,5.89v32.33c2.3,2.3,3.59,3.59,5.89,5.89h25.76c2.3,2.3,3.59,3.59,5.89,5.89v60.42c-2.3,2.3-3.59,3.59-5.89,5.89h-28.75c-2.3,2.3-3.59,3.59-5.89,5.89v41.11c2.3,2.3,3.59,3.59,5.89,5.89h74.21c2.3,2.3,3.59,3.59,5.89,5.89v127.89c2.3,2.3,3.59,3.59,5.89,5.89h10.61c2.3-2.3,3.59-3.59,5.89-5.89v-127.89c2.3-2.3,3.59-3.59,5.89-5.89h72.43c2.3-2.3,3.59-3.59,5.89-5.89v-41.11c-2.3-2.3-3.59-3.59-5.89-5.89h-28.75c-2.3-2.3-3.59-3.59-5.89-5.89Z"/>
</svg>