<?xml version="1.0" encoding="UTF-8"?>
<svg id="Layer_1" data-name="Layer 1" xmlns="http://www.w3.org/2000/svg" viewBox="0 0 2366.53 1000">
  <defs>
    <style>
      .cls-1 {
        fill: #e8eaf6;
      }
    </style>
  </defs>
  <g>
    <path class="cls-1" d="M1166.35,255.6c42.64,0,69.73,23.63,70.88,61.66h-36.88c-.87-18.15-13.83-28.81-34.58-28.81-22.76,0-37.46,10.95-37.46,28.53,0,14.98,8.07,23.34,25.64,27.37l33.13,7.2c36.02,7.78,53.59,26.22,53.59,57.63,0,39.19-30.54,64.54-76.93,64.54s-74.34-23.92-75.2-61.66h36.88c.29,17.86,14.7,28.52,38.32,28.52s40.05-10.66,40.05-28.24c0-14.12-7.2-22.47-24.49-26.22l-33.42-7.49c-35.73-7.78-54.46-28.24-54.46-60.51,0-36.88,30.54-62.52,74.91-62.52Z"/>
    <path class="cls-1" d="M1262.01,364.8c0-65.41,41.2-108.91,102.86-108.91,49.85,0,87.02,29.1,94.22,74.34h-38.9c-7.2-24.49-28.24-38.9-56.19-38.9-38.9,0-63.39,28.24-63.39,73.19s24.78,73.47,63.39,73.47c28.53,0,50.42-14.98,57.34-38.32h38.32c-8.07,44.37-46.68,73.76-96.52,73.76-61.37,0-101.13-42.64-101.13-108.63Z"/>
    <path class="cls-1" d="M1492.8,469.97v-210.62h130.81v34h-93.93v54.17h84.13v32.56h-84.13v55.9h93.93v34h-130.81Z"/>
    <path class="cls-1" d="M1663.66,469.97v-210.62h36.59l98.83,149.25v-149.25h36.3v210.62h-36.3l-99.12-149.25v149.25h-36.3Z"/>
    <path class="cls-1" d="M1882.06,469.97v-210.62h130.81v34h-93.93v54.17h84.13v32.56h-84.13v55.9h93.93v34h-130.81Z"/>
    <g>
      <path class="cls-1" d="M1083.08,533.78h41.2l41.49,76.64c3.17,5.76,5.19,10.37,7.49,15.56,2.59-5.19,3.75-8.64,7.49-15.56l41.2-76.64h40.05l-70.88,127.64v82.98h-36.88v-82.98l-71.17-127.64Z"/>
      <path class="cls-1" d="M1246.17,744.4l76.07-210.62h37.75l76.07,210.62h-38.9l-17-48.69h-78.66l-17,48.69h-38.32ZM1312.43,664.59h57.05l-24.2-68c-1.73-5.47-3.75-11.81-4.32-16.14-.86,4.03-2.59,10.37-4.61,16.14l-23.92,68Z"/>
      <path class="cls-1" d="M1462.55,744.4v-210.62h80.39c47.83,0,75.78,24.2,75.78,65.69,0,28.24-13.25,48.41-38.03,58.49l40.05,86.44h-40.34l-35.73-78.66h-45.24v78.66h-36.88ZM1499.43,633.19h43.51c23.34,0,37.17-12.39,37.17-33.71s-13.83-32.85-37.17-32.85h-43.51v66.56Z"/>
      <path class="cls-1" d="M1655.59,744.4v-210.62h73.76c62.24,0,105.17,42.93,105.17,105.74s-42.07,104.88-103.15,104.88h-75.78ZM1692.47,567.78v142.62h35.44c42.07,0,67.71-27.08,67.71-70.88s-26.22-71.75-69.73-71.75h-33.42Z"/>
    </g>
    <g>
      <path class="cls-1" d="M1970.06,531.78h17.3v3.67h-6.66v19.07h-3.98v-19.07h-6.66v-3.67Z"/>
      <path class="cls-1" d="M1990.41,554.53v-22.74h3.86l7.34,18.11,7.34-18.11h3.92v22.74h-3.86v-7c0-4.57,0-5.91.22-7.53l-5.79,14.53h-3.67l-5.76-14.5c.22,1.37.25,3.52.25,6.35v8.15h-3.86Z"/>
    </g>
  </g>
  <path class="cls-1" d="M967.29,261.87v90.77c-437.5-30.92-48.49,428.58-613.63,389.39v-90.75c466.12,43.59,82.6-422.91,613.63-389.41Z"/>
</svg>