<svg width="159" height="158" viewBox="0 0 159 158" fill="none" xmlns="http://www.w3.org/2000/svg">
<path d="M118.708 86.0741L159 86.0741V71.0709L120.515 71.0709L113.422 55.2384L129.45 39.2L118.847 28.5901L102.778 44.6697L91.2175 37.1244L86.549 37.0935V0L71.5554 0V36.9801L67.4429 36.9544L55.1104 44.7625L38.9432 28.5849L28.3401 39.1948L44.6411 55.5063L37.4094 71.0657H0L0 86.069H39.3498L40.544 94.8093L45.969 101.16L28.335 118.805L38.938 129.415L55.7383 112.604L55.9853 112.892L71.54 117.579L71.54 158H86.5335L86.5335 117.523L101.599 113.207L102.083 112.656L118.832 129.415L129.435 118.805L112.002 101.361L117.293 95.3346L118.688 86.0638L118.708 86.0741ZM78.8438 107.536L62.6715 102.664L51.6978 89.8133L49.4124 73.0693L56.531 57.7467L70.7988 48.7077L87.6916 48.821L101.836 58.0557L108.749 73.4761L106.232 90.1893L95.083 102.885L78.8438 107.536Z" fill="#7558F8"/>
</svg>
