<svg width="158" height="158" viewBox="0 0 158 158" fill="none" xmlns="http://www.w3.org/2000/svg">
<path d="M112.215 55.8099L140.753 27.2744L130.126 16.6488L102.868 43.9048L86.6305 37.7151L86.6231 15.0048L71.5983 15L71.6056 37.7686L58.0733 40.6122L54.7448 43.8966L28.4722 17.6262L17.8525 28.245L44.0449 54.4352L41.1138 57.3295L37.9092 71.5935L15 71.5862L15.0048 86.6097L38.1037 86.6171L44.0021 102.758L17.5056 129.253L28.1322 139.878L56.003 112.01L63.0394 117.354L71.3798 118.009L71.3878 142.995L86.4126 143L86.405 119.196L86.7842 119.225L101.121 111.528L129.75 140.155L140.37 129.536L111.701 100.869L119.314 87.1428L119.267 86.4098L143 86.4175L142.995 71.3939L118.292 71.386L117.771 63.3709L112.193 55.8172L112.215 55.8099ZM99.1806 99.2426L84.2751 107.246L67.4009 105.916L53.9227 95.6764L48.1119 79.7832L51.8154 63.2767L63.8606 51.3931L80.4196 47.916L96.2376 53.9414L106.293 67.5606L107.388 84.4478L99.1806 99.2426Z" fill="#7558F8"/>
</svg>
